<svg id="visual" viewBox="0 0 900 600" width="900" height="600" xmlns="http://www.w3.org/2000/svg" xmlns:xlink="http://www.w3.org/1999/xlink" version="1.1"><rect x="0" y="0" width="900" height="600" fill="#ffffff"></rect><defs><linearGradient id="grad1_0" x1="33.3%" y1="0%" x2="100%" y2="100%"><stop offset="20%" stop-color="#ff6f61" stop-opacity="1"></stop><stop offset="80%" stop-color="#ff6f61" stop-opacity="1"></stop></linearGradient></defs><defs><linearGradient id="grad1_1" x1="33.3%" y1="0%" x2="100%" y2="100%"><stop offset="20%" stop-color="#ff6f61" stop-opacity="1"></stop><stop offset="80%" stop-color="#ffa193" stop-opacity="1"></stop></linearGradient></defs><defs><linearGradient id="grad1_2" x1="33.3%" y1="0%" x2="100%" y2="100%"><stop offset="20%" stop-color="#ffd1c8" stop-opacity="1"></stop><stop offset="80%" stop-color="#ffa193" stop-opacity="1"></stop></linearGradient></defs><defs><linearGradient id="grad1_3" x1="33.3%" y1="0%" x2="100%" y2="100%"><stop offset="20%" stop-color="#ffd1c8" stop-opacity="1"></stop><stop offset="80%" stop-color="#ffffff" stop-opacity="1"></stop></linearGradient></defs><defs><linearGradient id="grad2_0" x1="0%" y1="0%" x2="66.7%" y2="100%"><stop offset="20%" stop-color="#ff6f61" stop-opacity="1"></stop><stop offset="80%" stop-color="#ff6f61" stop-opacity="1"></stop></linearGradient></defs><defs><linearGradient id="grad2_1" x1="0%" y1="0%" x2="66.7%" y2="100%"><stop offset="20%" stop-color="#ffa193" stop-opacity="1"></stop><stop offset="80%" stop-color="#ff6f61" stop-opacity="1"></stop></linearGradient></defs><defs><linearGradient id="grad2_2" x1="0%" y1="0%" x2="66.7%" y2="100%"><stop offset="20%" stop-color="#ffa193" stop-opacity="1"></stop><stop offset="80%" stop-color="#ffd1c8" stop-opacity="1"></stop></linearGradient></defs><defs><linearGradient id="grad2_3" x1="0%" y1="0%" x2="66.7%" y2="100%"><stop offset="20%" stop-color="#ffffff" stop-opacity="1"></stop><stop offset="80%" stop-color="#ffd1c8" stop-opacity="1"></stop></linearGradient></defs><g transform="translate(900, 0)"><path d="M0 378.6C-34.8 328 -69.6 277.5 -105.2 254.1C-140.9 230.6 -177.4 234.3 -222.7 222.7C-268.1 211.2 -322.3 184.5 -349.8 144.9C-377.2 105.2 -377.9 52.6 -378.6 0L0 0Z" fill="#ffe8e3"></path><path d="M0 283.9C-26.1 246 -52.2 208.1 -78.9 190.6C-105.7 173 -133 175.7 -167.1 167.1C-201.1 158.4 -241.7 138.4 -262.3 108.7C-282.9 78.9 -283.4 39.5 -283.9 0L0 0Z" fill="#ffb9ad"></path><path d="M0 189.3C-17.4 164 -34.8 138.8 -52.6 127C-70.4 115.3 -88.7 117.1 -111.4 111.4C-134 105.6 -161.2 92.3 -174.9 72.4C-188.6 52.6 -188.9 26.3 -189.3 0L0 0Z" fill="#ff897a"></path><path d="M0 94.6C-8.7 82 -17.4 69.4 -26.3 63.5C-35.2 57.7 -44.3 58.6 -55.7 55.7C-67 52.8 -80.6 46.1 -87.4 36.2C-94.3 26.3 -94.5 13.2 -94.6 0L0 0Z" fill="#ff6f61"></path></g><g transform="translate(0, 600)"><path d="M0 -378.6C54.8 -378.2 109.7 -377.8 144.9 -349.8C180.1 -321.8 195.7 -266.2 230.5 -230.5C265.4 -194.8 319.5 -179 347.4 -143.9C375.3 -108.8 376.9 -54.4 378.6 0L0 0Z" fill="#ffe8e3"></path><path d="M0 -283.9C41.1 -283.6 82.3 -283.3 108.7 -262.3C135.1 -241.3 146.7 -199.7 172.9 -172.9C199 -146.1 239.6 -134.2 260.5 -107.9C281.5 -81.6 282.7 -40.8 283.9 0L0 0Z" fill="#ffb9ad"></path><path d="M0 -189.3C27.4 -189.1 54.8 -188.9 72.4 -174.9C90 -160.9 97.8 -133.1 115.3 -115.3C132.7 -97.4 159.7 -89.5 173.7 -71.9C187.6 -54.4 188.5 -27.2 189.3 0L0 0Z" fill="#ff897a"></path><path d="M0 -94.6C13.7 -94.5 27.4 -94.4 36.2 -87.4C45 -80.4 48.9 -66.6 57.6 -57.6C66.3 -48.7 79.9 -44.7 86.8 -36C93.8 -27.2 94.2 -13.6 94.6 0L0 0Z" fill="#ff6f61"></path></g></svg>